PathFileType	4	(X/Y/Z)	output.trc
DataRate	CameraRate	NumFrames	NumMarkers	Units	OrigDataRate	OrigDataStartFrame	OrigNumFrames
1.0	1.0	44	3	mm	1.0	704	1125
Frame#	Time	Joint1X	Joint1Y	Joint1Z	Joint2X	Joint2Y	Joint2Z	Joint3X	Joint3Y	Joint3Z
										
704	703.00000	-0.09221	1.54402	1.93483	-0.28483	1.36931	1.83160	-0.29383	1.40630	1.59988
705	704.00000	-0.09265	1.54475	1.93483	-0.28891	1.38077	1.82142	-0.29661	1.43113	1.59201
706	705.00000	-0.09274	1.54550	1.93518	-0.29232	1.39217	1.81254	-0.29846	1.45546	1.58689
707	706.00000	-0.09254	1.54631	1.93573	-0.29540	1.40338	1.80539	-0.29865	1.47980	1.58477
708	707.00000	-0.09214	1.54717	1.93628	-0.29838	1.41427	1.79997	-0.29687	1.50424	1.58545
709	708.00000	-0.09171	1.54806	1.93661	-0.30137	1.42487	1.79591	-0.29327	1.52855	1.58833
710	709.00000	-0.09139	1.54893	1.93657	-0.30440	1.43531	1.79261	-0.28843	1.55235	1.59259
711	710.00000	-0.09129	1.54974	1.93607	-0.30744	1.44594	1.78948	-0.28307	1.57538	1.59744
712	711.00000	-0.09146	1.55045	1.93513	-0.31049	1.45719	1.78613	-0.27787	1.59761	1.60228
713	712.00000	-0.09185	1.55103	1.93382	-0.31351	1.46947	1.78245	-0.27328	1.61918	1.60682
714	713.00000	-0.09239	1.55148	1.93229	-0.31645	1.48303	1.77864	-0.26946	1.64033	1.61104
715	714.00000	-0.09297	1.55180	1.93072	-0.31920	1.49782	1.77502	-0.26630	1.66120	1.61516
716	715.00000	-0.09348	1.55201	1.92928	-0.32156	1.51346	1.77192	-0.26357	1.68176	1.61950
717	716.00000	-0.09385	1.55212	1.92811	-0.32331	1.52934	1.76959	-0.26098	1.70182	1.62438
718	717.00000	-0.09403	1.55215	1.92731	-0.32428	1.54472	1.76813	-0.25835	1.72105	1.62998
719	718.00000	-0.09404	1.55211	1.92687	-0.32443	1.55894	1.76749	-0.25564	1.73906	1.63632
720	719.00000	-0.09393	1.55202	1.92675	-0.32389	1.57152	1.76757	-0.25294	1.75546	1.64323
721	720.00000	-0.09376	1.55186	1.92683	-0.32292	1.58224	1.76821	-0.25039	1.76993	1.65039
722	721.00000	-0.09361	1.55168	1.92699	-0.32185	1.59113	1.76925	-0.24813	1.78231	1.65749
723	722.00000	-0.09355	1.55149	1.92714	-0.32096	1.59844	1.77050	-0.24616	1.79266	1.66430
724	723.00000	-0.09363	1.55137	1.92722	-0.32041	1.60457	1.77183	-0.24439	1.80128	1.67076
725	724.00000	-0.09384	1.55139	1.92721	-0.32019	1.60999	1.77314	-0.24261	1.80869	1.67703
726	725.00000	-0.09416	1.55160	1.92713	-0.32019	1.61523	1.77438	-0.24060	1.81553	1.68342
727	726.00000	-0.09455	1.55202	1.92700	-0.32018	1.62074	1.77561	-0.23816	1.82244	1.69029
728	727.00000	-0.09491	1.55261	1.92686	-0.31994	1.62682	1.77691	-0.23519	1.82988	1.69794
729	728.00000	-0.09519	1.55329	1.92669	-0.31928	1.63363	1.77836	-0.23171	1.83808	1.70652
730	729.00000	-0.09533	1.55397	1.92647	-0.31810	1.64110	1.77999	-0.22781	1.84697	1.71599
731	730.00000	-0.09534	1.55460	1.92614	-0.31647	1.64900	1.78174	-0.22368	1.85625	1.72608
732	731.00000	-0.09527	1.55514	1.92562	-0.31452	1.65698	1.78347	-0.21951	1.86543	1.73641
733	732.00000	-0.09519	1.55561	1.92489	-0.31251	1.66460	1.78500	-0.21552	1.87399	1.74651
734	733.00000	-0.09520	1.55606	1.92395	-0.31071	1.67145	1.78620	-0.21190	1.88143	1.75593
735	734.00000	-0.09533	1.55652	1.92291	-0.30933	1.67715	1.78701	-0.20879	1.88737	1.76435
736	735.00000	-0.09558	1.55700	1.92190	-0.30854	1.68147	1.78751	-0.20628	1.89158	1.77158
737	736.00000	-0.09593	1.55746	1.92107	-0.30840	1.68431	1.78788	-0.20438	1.89402	1.77761
738	737.00000	-0.09631	1.55786	1.92052	-0.30885	1.68574	1.78831	-0.20299	1.89479	1.78259
739	738.00000	-0.09665	1.55812	1.92029	-0.30979	1.68597	1.78898	-0.20200	1.89415	1.78670
740	739.00000	-0.09691	1.55821	1.92035	-0.31104	1.68528	1.78994	-0.20124	1.89243	1.79016
741	740.00000	-0.09709	1.55810	1.92060	-0.31241	1.68401	1.79114	-0.20056	1.89002	1.79306
742	741.00000	-0.09719	1.55784	1.92093	-0.31373	1.68245	1.79240	-0.19987	1.88727	1.79545
743	742.00000	-0.09726	1.55747	1.92128	-0.31486	1.68082	1.79349	-0.19914	1.88451	1.79723
744	743.00000	-0.09732	1.55709	1.92157	-0.31573	1.67926	1.79420	-0.19839	1.88193	1.79831
745	744.00000	-0.09741	1.55677	1.92180	-0.31633	1.67778	1.79439	-0.19772	1.87963	1.79858
746	745.00000	-0.09751	1.55656	1.92200	-0.31668	1.67634	1.79403	-0.19722	1.87761	1.79801
747	746.00000	-0.09760	1.55649	1.92220	-0.31685	1.67481	1.79317	-0.19699	1.87579	1.79668
